<?xml version="1.0" encoding="utf-8"?>
<!-- Generator: Adobe Illustrator 23.0.5, SVG Export Plug-In . SVG Version: 6.00 Build 0)  -->
<svg version="1.1" id="Layer_1" xmlns="http://www.w3.org/2000/svg" xmlns:xlink="http://www.w3.org/1999/xlink" x="0px" y="0px"
	 viewBox="0 0 40 40" style="enable-background:new 0 0 40 40;" xml:space="preserve">
<style type="text/css">
	.st0{fill:#FFFFFF;}
</style>
<path class="st0" d="M36.8,0H3.4C3,0,2.6,0,2.2,0.2C1.8,0.3,1.4,0.6,1.1,0.9c-0.3,0.3-0.6,0.6-0.8,1C0.1,2.3,0,2.7,0,3.1v33.4
	c0,0.9,0.4,1.8,1,2.4c0.6,0.6,1.5,1,2.4,1h33.4c0.9,0,1.7-0.4,2.3-1.1s0.9-1.5,0.9-2.4V3.1c0-0.4-0.1-0.8-0.2-1.2
	c-0.2-0.4-0.4-0.7-0.7-1c-0.3-0.3-0.7-0.5-1-0.7C37.6,0.1,37.2,0,36.8,0z M12.5,33.4H6.7V15.5h5.8V33.4z M9.7,12.8
	c-0.4,0-0.8-0.1-1.2-0.2c-0.4-0.1-0.7-0.4-1-0.7c-0.3-0.3-0.5-0.6-0.7-1c-0.1-0.4-0.2-0.8-0.2-1.2c0-0.4,0.1-0.8,0.2-1.2
	c0.1-0.4,0.4-0.7,0.7-1c0.3-0.3,0.6-0.5,1-0.7C9,6.7,9.4,6.7,9.8,6.7c0.4,0,0.8,0.1,1.2,0.2c0.4,0.1,0.7,0.4,1,0.7
	c0.3,0.3,0.5,0.6,0.7,1c0.1,0.4,0.2,0.8,0.2,1.2c0,0.4-0.1,0.8-0.2,1.2c-0.1,0.4-0.4,0.7-0.7,1c-0.3,0.3-0.6,0.5-1,0.7
	C10.6,12.8,10.1,12.8,9.7,12.8z M33.4,33.4h-5.8v-9.7c0-2.3-0.8-3.9-2.9-3.9c-0.6,0-1.3,0.2-1.8,0.6c-0.5,0.4-0.9,0.9-1.1,1.5
	c-0.2,0.5-0.2,0.9-0.2,1.4v10.1h-5.7V15.5h5.7V18c0.5-0.9,1.3-1.7,2.2-2.3c0.9-0.5,2-0.8,3.1-0.8c3.8,0,6.6,2.5,6.6,7.8V33.4z"/>
</svg>
