<?xml version="1.0" encoding="utf-8"?>
<!-- Generator: Adobe Illustrator 23.0.5, SVG Export Plug-In . SVG Version: 6.00 Build 0)  -->
<svg version="1.1" xmlns="http://www.w3.org/2000/svg" xmlns:xlink="http://www.w3.org/1999/xlink" x="0px" y="0px"
	 viewBox="0 0 225.3 225.3" style="enable-background:new 0 0 225.3 225.3;" xml:space="preserve">
<style type="text/css">
	.st0{fill:#0A051B;}
	.st1{fill:#F5F2FF;}
</style>
<g id="Layer_2">
	<circle class="st0" cx="112.6" cy="112.6" r="112.6"/>
</g>
<g id="Layer_1">
	<g>
		<g>
			<path class="st1" d="M112.6,15c-53.8,0-97.4,43.6-97.4,97.4c0,53.8,43.6,97.4,97.4,97.4s97.4-43.6,97.4-97.4
				C210,58.6,166.4,15,112.6,15z M112.6,203.7c-50.3,0-91.3-41-91.3-91.3c0-50.3,41-91.3,91.3-91.3s91.3,41,91.3,91.3
				C203.9,162.7,163,203.7,112.6,203.7z M112.6,78.9c-18.5,0-33.5,15-33.5,33.5c0,18.5,15,33.5,33.5,33.5s33.5-15,33.5-33.5
				C146.1,93.9,131.1,78.9,112.6,78.9z M112.6,139.8c-15.1,0-27.4-12.3-27.4-27.4c0-15.1,12.3-27.4,27.4-27.4S140,97.3,140,112.4
				C140,127.5,127.7,139.8,112.6,139.8z M192.5,87.4c-8.2-26.2-28.7-46.8-54.9-54.9c-0.8-0.3-1.7,0.2-1.9,1c-0.2,0.8,0.2,1.7,1,1.9
				c25.3,7.9,45.1,27.7,52.9,52.9c0.2,0.7,0.8,1.1,1.5,1.1c0.1,0,0.3,0,0.5-0.1C192.3,89.1,192.8,88.2,192.5,87.4z M132.2,49.9
				c-0.8-0.3-1.7,0.2-1.9,1c-0.2,0.8,0.2,1.7,1,1.9c19.5,6.1,34.8,21.4,40.9,40.9c0.2,0.7,0.8,1.1,1.5,1.1c0.1,0,0.3,0,0.5-0.1
				c0.8-0.2,1.2-1.1,1-1.9C168.7,72.4,152.6,56.3,132.2,49.9z M134.9,41.2c-0.8-0.3-1.7,0.2-1.9,1c-0.2,0.8,0.2,1.7,1,1.9
				c22.4,7,40,24.5,46.9,46.9c0.2,0.7,0.8,1.1,1.5,1.1c0.1,0,0.3,0,0.5-0.1c0.8-0.2,1.2-1.1,1-1.9C176.5,66.8,158.2,48.5,134.9,41.2
				z M88.6,189.4c-25.3-7.9-45.1-27.7-52.9-52.9c-0.3-0.8-1.1-1.3-1.9-1c-0.8,0.3-1.2,1.1-1,1.9c8.2,26.2,28.7,46.7,54.9,54.9
				c0.2,0,0.3,0.1,0.5,0.1c0.6,0,1.2-0.4,1.5-1.1C89.8,190.5,89.4,189.7,88.6,189.4z M94,172c-19.5-6.1-34.9-21.4-41-41
				c-0.2-0.8-1.1-1.3-1.9-1c-0.8,0.3-1.2,1.1-1,1.9c6.4,20.5,22.5,36.6,42.9,42.9c0.2,0,0.3,0.1,0.5,0.1c0.6,0,1.2-0.4,1.5-1.1
				C95.3,173.1,94.8,172.2,94,172z M91.3,180.7c-22.4-7-40-24.5-46.9-46.9c-0.2-0.8-1.1-1.3-1.9-1c-0.8,0.3-1.2,1.1-1,1.9
				c7.3,23.4,25.6,41.7,48.9,48.9c0.2,0,0.3,0.1,0.5,0.1c0.6,0,1.2-0.4,1.5-1.1C92.5,181.8,92.1,180.9,91.3,180.7z M112.6,109.6
				c-1.6,0-2.8,1.3-2.8,2.8c0,1.6,1.3,2.8,2.8,2.8s2.8-1.3,2.8-2.8C115.5,110.8,114.2,109.6,112.6,109.6z"/>
		</g>
	</g>
</g>
</svg>
