<?xml version="1.0" encoding="utf-8"?>
<!-- Generator: Adobe Illustrator 23.0.5, SVG Export Plug-In . SVG Version: 6.00 Build 0)  -->
<svg version="1.1" id="Layer_1" xmlns="http://www.w3.org/2000/svg" xmlns:xlink="http://www.w3.org/1999/xlink" x="0px" y="0px"
	 viewBox="0 0 236.1 225.3" style="enable-background:new 0 0 236.1 225.3;" xml:space="preserve">
<path d="M122.4,3.3C62,0.9,11.1,47.9,8.7,108.3c-2.4,60.4,44.6,111.3,105,113.7c60.4,2.4,111.3-44.6,113.7-105
	C229.7,56.6,182.7,5.7,122.4,3.3z M168.6,163.6c-1.4,2.4-4,3.6-6.6,3.2c-0.8-0.1-1.6-0.4-2.3-0.8c-14.5-8.2-30.2-13.6-46.8-15.9
	s-33.3-1.5-49.4,2.4c-3.5,0.9-7-1.3-7.9-4.8s1.3-7,4.8-7.9c17.8-4.3,36.1-5.2,54.3-2.6s35.6,8.5,51.5,17.5
	C169.2,156.5,170.3,160.5,168.6,163.6L168.6,163.6z M182.9,134.9c-2.2,4.1-7.4,5.7-11.5,3.4c-16.9-9.1-35.2-15.2-54.4-17.9
	s-38.5-2-57.3,2.2c-1,0.2-2,0.3-3,0.1c-3.4-0.5-6.3-3-7.1-6.6c-1-4.6,1.9-9.1,6.5-10.1c20.8-4.6,42.1-5.4,63.3-2.4
	c21.2,3,41.5,9.6,60.2,19.7C183.6,125.6,185.2,130.7,182.9,134.9L182.9,134.9z M198.9,102.5c-2.1,4-6.5,6.1-10.7,5.5
	c-1.1-0.2-2.3-0.5-3.4-1.1c-19.7-10.3-40.9-17-63.1-20.1c-22.2-3.1-44.4-2.4-66.2,2c-5.7,1.2-11.2-2.5-12.3-8.2
	c-1.2-5.7,2.5-11.2,8.2-12.3c24.1-4.9,48.7-5.6,73.3-2.2c24.5,3.4,48,10.9,69.8,22.3C199.5,91.1,201.5,97.4,198.9,102.5L198.9,102.5
	z"/>
</svg>
