<svg
  viewBox="0 0 1440 700"
  preserveAspectRatio="none"
  xmlns="http://www.w3.org/2000/svg"
  aria-hidden="true"
>
  <defs>
    <linearGradient id="anxiety-wave-gradient" x1="0%" y1="0%" x2="0%" y2="100%">
      <stop offset="0%" stop-color="#344751" />
      <stop offset="100%" stop-color="#86efac" />
    </linearGradient>
  </defs>

  <rect width="1440" height="700" fill="#0a051b" />

  <path
    d="M 0,700 L 0,105 C 26.890878157706574,95.68486357358023 53.78175631541315,86.36972714716045 75,100 C 96.21824368458685,113.63027285283955 111.76385289605403,150.20595498493847 133,157 C 154.23614710394597,163.79404501506153 181.1628321003707,140.8064529130857 206,136 C 230.8371678996293,131.1935470869143 253.58481870246334,144.5682333627187 279,141 C 304.41518129753666,137.4317666372813 332.4978930897759,116.92061363603958 360,105 C 387.5021069102241,93.07938636396042 414.42360893843306,89.74931209312295 435,95 C 455.57639106156694,100.25068790687705 469.8076711564919,114.08213799146857 495,117 C 520.1923288435081,119.91786200853143 556.3457064355993,111.92213594100281 581,110 C 605.6542935644007,108.07786405899719 618.809503101111,112.22931824452013 639,119 C 659.190496898889,125.77068175547987 686.4162811599566,135.16059108091673 711,120 C 735.5837188400434,104.83940891908325 757.5253722590625,65.12831743181287 783,66 C 808.4746277409375,66.87168256818713 837.4822298037938,108.32613919183176 865,118 C 892.5177701962062,127.67386080816824 918.5457085257625,105.56712580086008 940,87 C 961.4542914742375,68.43287419913992 978.3349360931566,53.40535760472788 1001,66 C 1023.6650639068434,78.59464239527212 1052.1145471016116,118.81144378022836 1079,125 C 1105.8854528983884,131.18855621977164 1131.2068755003966,103.3488672743587 1155,80 C 1178.7931244996034,56.6511327256413 1201.057950896801,37.79308712233684 1225,60 C 1248.942049103199,82.20691287766316 1274.5613209123997,145.47878423629393 1296,146 C 1317.4386790876003,146.52121576370607 1334.6967654536002,84.29177593248744 1358,67 C 1381.3032345463998,49.70822406751255 1410.6516172732,77.35411203375628 1440,105 L 1440,700 L 0,700 Z"
    fill="url(#anxiety-wave-gradient)"
    fill-opacity="0.265"
  />
  <path
    d="M 0,700 L 0,245 C 22.694489817864316,237.53253176631176 45.38897963572863,230.06506353262353 66,223 C 86.61102036427137,215.93493646737647 105.13857127494981,209.27227763581763 132,224 C 158.8614287250502,238.72772236418237 194.0567352644722,274.84582592410595 224,269 C 253.9432647355278,263.15417407589405 278.63448766716147,215.34441866775853 298,207 C 317.36551233283853,198.65558133224147 331.40531406688194,229.77649940485992 354,231 C 376.59468593311806,232.22350059514008 407.7442560653107,203.54958371280165 435,210 C 462.2557439346893,216.45041628719835 485.6176616718752,258.0251657439334 506,263 C 526.3823383281248,267.9748342560666 543.7850972471888,236.34975331146467 572,222 C 600.2149027528112,207.65024668853533 639.24194933937,210.57582101020785 661,225 C 682.75805066063,239.42417898979215 687.2471053953315,265.3469626477041 709,257 C 730.7528946046685,248.65303735229588 769.7696290793037,206.03632839897566 799,196 C 828.2303709206963,185.96367160102434 847.6743782874539,208.50772375639323 865,218 C 882.3256217125461,227.49227624360677 897.5328577708805,223.93277657545121 923,215 C 948.4671422291195,206.06722342454879 984.1941906290242,191.7611699418019 1014,210 C 1043.8058093709758,228.2388300581981 1067.6903797130226,279.02254365734103 1091,282 C 1114.3096202869774,284.97745634265897 1137.044290518886,240.14865542883402 1161,230 C 1184.955709481114,219.85134457116598 1210.1324582114325,244.3828346273228 1231,244 C 1251.8675417885675,243.6171653726772 1268.4258766353837,218.3200060618746 1293,220 C 1317.5741233646163,221.6799939381254 1350.164035247033,250.33714112517868 1376,259 C 1401.835964752967,267.6628588748213 1420.9179823764835,256.33142943741063 1440,245 L 1440,700 L 0,700 Z"
    fill="url(#anxiety-wave-gradient)"
    fill-opacity="0.4"
  />
  <path
    d="M 0,700 L 0,385 C 17.64140801407988,383.8260702203506 35.28281602815976,382.65214044070115 60,377 C 84.71718397184024,371.34785955929885 116.51014390144084,361.217508457546 142,365 C 167.48985609855916,368.782491542454 186.67660836607686,386.47782572911495 213,391 C 239.32339163392314,395.52217427088505 272.7834226342517,386.87118862599414 296,391 C 319.2165773657483,395.12881137400586 332.1897010969165,412.03741976690856 355,421 C 377.8102989030835,429.96258023309144 410.4577729780823,430.9791323063717 437,422 C 463.5422270219177,413.0208676936283 483.9792069907543,394.0460510076048 505,397 C 526.0207930092457,399.9539489923952 547.6253990589001,424.8366636632095 569,424 C 590.3746009410999,423.1633363367905 611.5191967736449,396.60729433955726 636,396 C 660.4808032263551,395.39270566044274 688.2978138465198,420.7341589785614 714,413 C 739.7021861534802,405.2658410214386 763.2895478402756,364.45606974619704 786,365 C 808.7104521597244,365.54393025380296 830.5439947923779,407.4415620366504 858,406 C 885.4560052076221,404.5584379633496 918.5344729902126,359.77768210720143 943,348 C 967.4655270097874,336.22231789279857 983.3181132467714,357.447709534544 1008,381 C 1032.6818867532286,404.552290465456 1066.1930740227008,430.43147975462256 1092,416 C 1117.8069259772992,401.56852024537744 1135.9095906624254,346.82637144696577 1153,350 C 1170.0904093375746,353.17362855303423 1186.1685633275972,414.2630344575143 1210,417 C 1233.8314366724028,419.7369655424857 1265.4161560271853,364.1214907229769 1290,347 C 1314.5838439728147,329.8785092770231 1332.1668125636613,351.251002650578 1356,364 C 1379.8331874363387,376.748997349422 1409.9165937181692,380.874498674711 1440,385 L 1440,700 L 0,700 Z"
    fill="url(#anxiety-wave-gradient)"
    fill-opacity="0.53"
  />
  <path
    d="M 0,700 L 0,525 C 17.06850855841622,505.8969912110115 34.13701711683244,486.79398242202296 59,494 C 83.86298288316756,501.20601757797704 116.5204400910865,534.7210615229196 145,550 C 173.4795599089135,565.2789384770804 197.7812225188217,562.3217714862986 222,559 C 246.2187774811783,555.6782285137014 270.3546698336268,551.9918525318857 290,559 C 309.6453301663732,566.0081474681143 324.80009814667085,583.7108183861587 352,576 C 379.19990185332915,568.2891816138413 418.44493757968996,535.164873923479 444,532 C 469.55506242031004,528.835126076521 481.4201515345694,555.6296859199248 498,552 C 514.5798484654306,548.3703140800752 535.8744562820325,514.316382396822 564,509 C 592.1255437179675,503.68361760317805 627.0820233373007,527.1047844927874 653,538 C 678.9179766626993,548.8952155072126 695.7974503687647,547.2644796320283 721,556 C 746.2025496312353,564.7355203679717 779.7281751876404,583.8372969790993 802,560 C 824.2718248123596,536.1627030209007 835.2898488806734,469.38633245157473 856,474 C 876.7101511193266,478.61366754842527 907.1124292896661,554.6173732146017 931,562 C 954.8875707103339,569.3826267853983 972.2604339606626,508.1441746900185 997,486 C 1021.7395660393374,463.8558253099815 1053.8458348676834,480.8059280253245 1084,482 C 1114.1541651323166,483.1940719746755 1142.3562265686041,468.6321132086838 1165,481 C 1187.6437734313959,493.3678867913162 1204.7292588579,532.6656191399404 1226,530 C 1247.2707411421,527.3343808600596 1272.7267379997961,482.7054102315545 1296,477 C 1319.2732620002039,471.2945897684455 1340.3637891429153,504.51273993384154 1364,519 C 1387.6362108570847,533.4872600661585 1413.8181054285424,529.2436300330792 1440,525 L 1440,700 L 0,700 Z"
    fill="url(#anxiety-wave-gradient)"
    fill-opacity="1"
  />
</svg>
