<svg
  viewBox="0 0 1440 700"
  preserveAspectRatio="none"
  xmlns="http://www.w3.org/2000/svg"
  aria-hidden="true"
>
  <defs>
    <linearGradient id="disgust-wave-gradient" x1="0%" y1="0%" x2="0%" y2="100%">
      <stop offset="0%" stop-color="#483866" />
      <stop offset="100%" stop-color="#d8b4fe" />
    </linearGradient>
  </defs>

  <rect width="1440" height="700" fill="#0a051b" />

  <path
    d="M 0,700 L 0,105 C 71.28368924889543,89.38199558173784 142.56737849779086,73.7639911634757 207,79 C 271.43262150220914,84.2360088365243 329.014175257732,110.32603092783503 382,123 C 434.985824742268,135.67396907216497 483.37592047128123,134.93188512518412 547,122 C 610.6240795287188,109.06811487481589 689.482142857143,83.94642857142857 741,92 C 792.517857142857,100.05357142857143 816.6955081001471,141.28240058910163 873,140 C 929.3044918998529,138.71759941089837 1017.735824742268,94.92396907216495 1083,83 C 1148.264175257732,71.07603092783505 1190.3611929307806,91.02172312223858 1246,100 C 1301.6388070692194,108.97827687776142 1370.8194035346096,106.9891384388807 1440,105 L 1440,700 L 0,700 Z"
    fill="url(#disgust-wave-gradient)"
    fill-opacity="0.265"
  />
  <path
    d="M 0,700 L 0,245 C 50.861377025036816,262.4749631811487 101.72275405007363,279.9499263622975 165,271 C 228.27724594992637,262.0500736377025 303.97036082474233,226.67525773195877 364,209 C 424.02963917525767,191.32474226804123 468.3958026509573,191.34904270986743 526,210 C 583.6041973490427,228.65095729013257 654.4464285714286,265.9285714285714 709,265 C 763.5535714285714,264.0714285714286 801.8184830633285,224.93667157584684 872,215 C 942.1815169366715,205.06332842415316 1044.279639175258,224.3247422680412 1110,224 C 1175.720360824742,223.6752577319588 1205.0629602356407,203.76435935198822 1254,204 C 1302.9370397643593,204.23564064801178 1371.4685198821796,224.6178203240059 1440,245 L 1440,700 L 0,700 Z"
    fill="url(#disgust-wave-gradient)"
    fill-opacity="0.4"
  />
  <path
    d="M 0,700 L 0,385 C 49.31811487481592,378.1231590574374 98.63622974963184,371.2463181148748 152,378 C 205.36377025036816,384.7536818851252 262.77319587628864,405.1378865979381 339,424 C 415.22680412371136,442.8621134020619 510.27098674521346,460.20213549337257 570,437 C 629.7290132547865,413.79786450662743 654.1428571428573,350.0535714285715 701,343 C 747.8571428571427,335.9464285714285 817.1575846833578,385.58357879234165 878,403 C 938.8424153166422,420.41642120765835 991.2268041237114,405.6121134020618 1051,395 C 1110.7731958762886,384.3878865979382 1177.935198821797,377.96796759941094 1244,377 C 1310.064801178203,376.03203240058906 1375.0324005891016,380.51601620029453 1440,385 L 1440,700 L 0,700 Z"
    fill="url(#disgust-wave-gradient)"
    fill-opacity="0.53"
  />
  <path
    d="M 0,700 L 0,525 C 49.894513991163464,539.7260677466863 99.78902798232693,554.4521354933726 166,546 C 232.21097201767307,537.5478645066274 314.7384020618557,505.91752577319585 384,494 C 453.2615979381443,482.08247422680415 509.25736377025044,489.8777614138439 563,512 C 616.7426362297496,534.1222385861561 668.2321428571428,570.5714285714286 718,571 C 767.7678571428572,571.4285714285714 815.8140648011781,535.8365243004419 876,517 C 936.1859351988219,498.1634756995582 1008.5115979381442,496.08247422680415 1075,512 C 1141.4884020618558,527.9175257731958 1202.1395434462445,561.8335787923417 1262,567 C 1321.8604565537555,572.1664212076583 1380.9302282768776,548.5832106038292 1440,525 L 1440,700 L 0,700 Z"
    fill="url(#disgust-wave-gradient)"
    fill-opacity="1"
  />
</svg>
