<svg
  viewBox="0 0 1440 700"
  preserveAspectRatio="none"
  xmlns="http://www.w3.org/2000/svg"
  aria-hidden="true"
>
  <defs>
    <linearGradient id="happiness-wave-gradient" x1="0%" y1="0%" x2="0%" y2="100%">
      <stop offset="0%" stop-color="#513b2f" />
      <stop offset="100%" stop-color="#fbbf24" />
    </linearGradient>
  </defs>

  <rect width="1440" height="700" fill="#0a051b" />

  <path
    d="M 0,700 L 0,105 C 45.26096929337773,88.4930077691454 90.52193858675545,71.98601553829079 140,83 C 189.47806141324455,94.01398446170921 243.17321494635587,132.54894561598226 301,148 C 358.82678505364413,163.45105438401774 420.78520162782104,155.81820199778025 478,152 C 535.214798372179,148.18179800221975 587.6859785423603,148.1782463928968 638,143 C 688.3140214576397,137.8217536071032 736.4708842027376,127.46881243063264 799,123 C 861.5291157972624,118.53118756936736 938.4304846466889,119.94650388457268 984,115 C 1029.569515353311,110.05349611542732 1043.807177210507,98.74517203107659 1095,106 C 1146.192822789493,113.25482796892341 1234.3408065112837,139.07280799112098 1298,142 C 1361.6591934887163,144.92719200887902 1400.8295967443582,124.96359600443951 1440,105 L 1440,700 L 0,700 Z"
    fill="url(#happiness-wave-gradient)"
    fill-opacity="0.265"
  />
  <path
    d="M 0,700 L 0,245 C 41.91510667159946,272.53986928104575 83.83021334319892,300.0797385620915 133,294 C 182.16978665680108,287.9202614379085 238.59425329880378,248.22091503267973 291,247 C 343.4057467011962,245.77908496732027 391.79277346158585,283.0366013071896 453,296 C 514.2072265384141,308.9633986928104 588.2346528548526,297.6326797385621 648,270 C 707.7653471451474,242.3673202614379 753.2686151190035,198.4326797385621 809,204 C 864.7313848809965,209.5673202614379 930.6908866691331,264.63660130718955 975,274 C 1019.3091133308669,283.36339869281045 1041.9678382044642,247.0209150326797 1091,240 C 1140.0321617955358,232.9790849673203 1215.4377605130103,255.2797385620915 1278,261 C 1340.5622394869897,266.7202614379085 1390.2811197434949,255.86013071895425 1440,245 L 1440,700 L 0,700 Z"
    fill="url(#happiness-wave-gradient)"
    fill-opacity="0.4"
  />
  <path
    d="M 0,700 L 0,385 C 48.20673325934146,369.13505981008757 96.41346651868292,353.27011962017514 157,365 C 217.58653348131708,376.72988037982486 290.55286718460974,416.0545813293871 345,422 C 399.44713281539026,427.9454186706129 435.3750647428782,400.5115550622765 482,386 C 528.6249352571218,371.4884449377235 585.9468738438773,369.899198421507 640,363 C 694.0531261561227,356.100801578493 744.8374398816129,343.8916512516956 802,347 C 859.1625601183871,350.1083487483044 922.7033666296705,368.5341965717105 969,393 C 1015.2966333703295,417.4658034282895 1044.349093599704,447.97156246146255 1099,435 C 1153.650906400296,422.02843753853745 1233.9002589715133,365.5795535824393 1295,350 C 1356.0997410284867,334.4204464175607 1398.0498705142434,359.71022320878035 1440,385 L 1440,700 L 0,700 Z"
    fill="url(#happiness-wave-gradient)"
    fill-opacity="0.53"
  />
  <path
    d="M 0,700 L 0,525 C 52.92825255888519,516.2719694166975 105.85650511777038,507.54393883339503 166,510 C 226.14349488222962,512.456061166605 293.5022320878037,526.0962140831175 341,521 C 388.4977679121963,515.9037859168825 416.1345665310149,492.071204834135 471,502 C 525.8654334689851,511.928795165865 607.9595017881365,555.6189665803428 665,571 C 722.0404982118635,586.3810334196572 754.0274263164386,573.4529288444937 801,547 C 847.9725736835614,520.5470711555063 909.9307929461091,480.5693180416821 965,489 C 1020.0692070538909,497.4306819583179 1068.2494018991245,554.2697989887779 1116,560 C 1163.7505981008755,565.7302010112221 1211.071599457393,520.3514860032062 1265,506 C 1318.928400542607,491.6485139967937 1379.4642002713035,508.3242569983969 1440,525 L 1440,700 L 0,700 Z"
    fill="url(#happiness-wave-gradient)"
    fill-opacity="1"
  />
</svg>
