<svg
  viewBox="0 0 1440 700"
  preserveAspectRatio="none"
  xmlns="http://www.w3.org/2000/svg"
  aria-hidden="true"
>
  <defs>
    <linearGradient id="rage-wave-gradient" x1="0%" y1="0%" x2="0%" y2="100%">
      <stop offset="0%" stop-color="#513550" />
      <stop offset="100%" stop-color="#fca5a5" />
    </linearGradient>
  </defs>

  <rect width="1440" height="700" fill="#0a051b" />

  <path
    d="M 0,700 L 0,105 C 36.800891065377186,127.23752979268204 73.60178213075437,149.47505958536408 105,153 C 136.39821786924563,156.52494041463592 162.39376254235972,141.33729145122572 204,145 C 245.60623745764028,148.66270854877428 302.8231676998066,171.17577460973308 343,155 C 383.1768323001934,138.82422539026692 406.3135666584136,83.959610109842 434,73 C 461.6864333415864,62.040389890157996 493.92256566653907,94.98578495089889 537,94 C 580.0774343334609,93.01421504910111 633.9961706754298,58.097250086562454 672,72 C 710.0038293245702,85.90274991343755 732.0927516317416,148.62521470285125 766,149 C 799.9072483682584,149.37478529714875 845.6328227976036,87.40189110203251 888,85 C 930.3671772023964,82.59810889796749 969.3759571778442,139.7672208890187 1008,151 C 1046.6240428221558,162.2327791109813 1084.8633484910195,127.52922534189278 1125,111 C 1165.1366515089805,94.47077465810722 1207.1706488580771,96.11587774341017 1238,109 C 1268.8293511419229,121.88412225658983 1288.4540560766718,146.00726368446652 1325,149 C 1361.5459439233282,151.99273631553348 1415.0131268352366,133.85506751872384 1437,123 C 1458.9868731647634,112.14493248127616 1449.4934365823817,108.57246624063808 1440,105 L 1440,700 L 0,700 Z"
    fill="url(#rage-wave-gradient)"
    fill-opacity="0.265"
  />
  <path
    d="M 0,700 L 0,245 C 43.88395287894977,233.93311136641154 87.76790575789954,222.86622273282305 124,219 C 160.23209424210046,215.13377726717695 188.81232984735163,218.46822043511935 220,235 C 251.18767015264837,251.53177956488065 284.982774852694,281.2608955266997 325,280 C 365.017225147306,278.7391044733003 411.2565707418727,246.4881974580818 455,242 C 498.7434292581273,237.5118025419182 539.9909421798152,260.7863146409732 570,261 C 600.0090578201848,261.2136853590268 618.7796605388662,238.36654397802533 647,226 C 675.2203394611338,213.63345602197467 712.8904156647201,211.7475094469255 758,223 C 803.1095843352799,234.2524905530745 855.6586768022536,258.6434182342728 898,264 C 940.3413231977464,269.3565817657272 972.4748771262653,255.67881761598312 1000,259 C 1027.5251228737347,262.3211823840169 1050.4418146926857,282.6413113017946 1087,271 C 1123.5581853073143,259.3586886982054 1173.7578641029916,215.75593717683856 1212,208 C 1250.2421358970084,200.24406282316144 1276.5267288953485,228.33493999085118 1317,245 C 1357.4732711046515,261.6650600091488 1412.1352203156146,266.9043028597568 1435,265 C 1457.8647796843854,263.0956971402432 1448.9323898421926,254.0478485701216 1440,245 L 1440,700 L 0,700 Z"
    fill="url(#rage-wave-gradient)"
    fill-opacity="0.4"
  />
  <path
    d="M 0,700 L 0,385 C 32.939965573960606,408.1710941727415 65.87993114792121,431.342188345483 108,416 C 150.1200688520788,400.657811654517 201.4202409822758,346.8023407908096 241,346 C 280.5797590177242,345.1976592091904 308.43910492297545,397.44844849127855 345,411 C 381.56089507702455,424.55155150872145 426.8233393258225,399.40386524407614 462,378 C 497.1766606741775,356.59613475592386 522.2675377737345,338.93609053241676 551,341 C 579.7324622262655,343.06390946758324 612.106509579239,364.85177262625683 650,378 C 687.893490420761,391.14822737374317 731.3064239093096,395.6568189625558 775,395 C 818.6935760906904,394.3431810374442 862.6677947835229,388.5209515235198 895,391 C 927.3322052164771,393.4790484764802 948.0223969565988,404.25937494336483 976,402 C 1003.9776030434012,399.74062505663517 1039.2426173900826,384.441548703021 1089,392 C 1138.7573826099174,399.558451296979 1203.0071334830707,429.97443024455106 1237,424 C 1270.9928665169293,418.02556975544894 1274.728848677635,375.6607303187747 1312,365 C 1349.271151322365,354.3392696812253 1420.07747180639,375.38264848035004 1447,384 C 1473.92252819361,392.61735151964996 1456.961264096805,388.80867575982495 1440,385 L 1440,700 L 0,700 Z"
    fill="url(#rage-wave-gradient)"
    fill-opacity="0.53"
  />
  <path
    d="M 0,700 L 0,525 C 38.82230452791535,552.545156991815 77.6446090558307,580.0903139836299 118,566 C 158.3553909441693,551.9096860163701 200.24386830459252,496.1839010572953 233,491 C 265.7561316954075,485.8160989427047 289.37991772579926,531.1740817871889 325,529 C 360.62008227420074,526.8259182128111 408.2364607922104,477.11977179394904 447,486 C 485.7635392077896,494.88022820605096 515.6742391053591,562.3468310370149 554,564 C 592.3257608946409,565.6531689629851 639.0665827863535,501.49290405799127 671,482 C 702.9334172136465,462.50709594200873 720.0594297492271,487.6815527310203 754,486 C 787.9405702507729,484.3184472689797 838.6956982167383,455.78088501792774 888,474 C 937.3043017832617,492.21911498207226 985.1577773838201,557.1949071972688 1014,558 C 1042.84222261618,558.8050928027312 1052.673192247982,495.4394861929969 1089,497 C 1125.326807752018,498.5605138070031 1188.1494536242524,565.0471480307432 1227,572 C 1265.8505463757476,578.9528519692568 1280.728993255009,526.3719216840307 1322,507 C 1363.271006744991,487.62807831596933 1430.9345733557118,501.46516523313414 1455,510 C 1479.0654266442882,518.5348347668659 1459.532713322144,521.767417383433 1440,525 L 1440,700 L 0,700 Z"
    fill="url(#rage-wave-gradient)"
    fill-opacity="1"
  />
</svg>
