<svg
  viewBox="0 0 1440 700"
  preserveAspectRatio="none"
  xmlns="http://www.w3.org/2000/svg"
  aria-hidden="true"
>
  <defs>
    <linearGradient id="sadness-wave-gradient" x1="0%" y1="0%" x2="0%" y2="100%">
      <stop offset="0%" stop-color="#2a3565" />
      <stop offset="100%" stop-color="#60a5fa" />
    </linearGradient>
  </defs>

  <rect width="1440" height="700" fill="#0a051b" />

  <path
    d="M 0,700 L 0,105 C 177.7333333333333,92.73333333333333 355.4666666666666,80.46666666666667 520,85 C 684.5333333333334,89.53333333333333 835.8666666666668,110.86666666666667 987,117 C 1138.1333333333332,123.13333333333333 1289.0666666666666,114.06666666666666 1440,105 L 1440,700 L 0,700 Z"
    fill="url(#sadness-wave-gradient)"
    fill-opacity="0.265"
  />
  <path
    d="M 0,700 L 0,245 C 171.06666666666666,242.86666666666667 342.1333333333333,240.73333333333332 493,247 C 643.8666666666667,253.26666666666668 774.5333333333333,267.93333333333334 929,269 C 1083.4666666666667,270.06666666666666 1261.7333333333333,257.5333333333333 1440,245 L 1440,700 L 0,700 Z"
    fill="url(#sadness-wave-gradient)"
    fill-opacity="0.4"
  />
  <path
    d="M 0,700 L 0,385 C 144.8,411.4 289.6,437.8 457,430 C 624.4,422.2 814.4000000000001,380.2 982,367 C 1149.6,353.8 1294.8,369.4 1440,385 L 1440,700 L 0,700 Z"
    fill="url(#sadness-wave-gradient)"
    fill-opacity="0.53"
  />
  <path
    d="M 0,700 L 0,525 C 164.66666666666663,548.6 329.33333333333326,572.2 471,561 C 612.6666666666667,549.8 731.3333333333335,503.8 889,492 C 1046.6666666666665,480.2 1243.3333333333333,502.6 1440,525 L 1440,700 L 0,700 Z"
    fill="url(#sadness-wave-gradient)"
    fill-opacity="1"
  />
</svg>
