<svg
  viewBox="0 0 1440 700"
  preserveAspectRatio="none"
  xmlns="http://www.w3.org/2000/svg"
  aria-hidden="true"
>
  <defs>
    <linearGradient id="surprise-wave-gradient" x1="0%" y1="0%" x2="0%" y2="100%">
      <stop offset="0%" stop-color="#513035" />
      <stop offset="100%" stop-color="#fb923c" />
    </linearGradient>
  </defs>

  <rect width="1440" height="700" fill="#0a051b" />

  <path
    d="M 0,700 L 0,105 C 43.422275149138855,78.02373664788433 86.84455029827771,51.047473295768654 121,59 C 155.1554497017223,66.95252670423135 180.044073956028,109.83384346480972 213,124 C 245.955926043972,138.16615653519028 286.9791538776102,123.61715284499246 322,116 C 357.0208461223898,108.38284715500754 386.03931053353136,107.69754515522038 418,106 C 449.96068946646864,104.30245484477962 484.86360398826423,101.59266653412604 517,105 C 549.1363960117358,108.40733346587396 578.5062735134114,117.93178870827542 612,113 C 645.4937264865886,108.06821129172458 683.1113019580899,88.68017863277223 721,94 C 758.8886980419101,99.31982136722777 797.0485186542285,129.3474967606356 825,132 C 852.9514813457715,134.6525032393644 870.6946234249958,109.92983432468536 906,87 C 941.3053765750042,64.07016567531464 994.1729876457885,42.93316594062297 1031,53 C 1067.8270123542115,63.06683405937703 1088.6134259918506,104.33750191282274 1123,129 C 1157.3865740081494,153.66249808717726 1205.3733083868094,161.71682640808618 1243,157 C 1280.6266916131906,152.28317359191382 1307.8933404609118,134.79519245483252 1339,124 C 1370.1066595390882,113.20480754516748 1405.0533297695442,109.10240377258374 1440,105 L 1440,700 L 0,700 Z"
    fill="url(#surprise-wave-gradient)"
    fill-opacity="0.265"
  />
  <path
    d="M 0,700 L 0,245 C 31.828844780450197,264.59214579667514 63.657689560900394,284.18429159335034 96,286 C 128.3423104390996,287.81570840664966 161.19808653684862,271.8549794232739 198,245 C 234.80191346315138,218.1450205767261 275.54996429170507,180.39579071355408 309,195 C 342.45003570829493,209.60420928644592 368.602056296331,276.5618577225098 403,290 C 437.397943703669,303.4381422774902 480.0418105229709,263.35677839640664 513,234 C 545.9581894770291,204.64322160359333 569.2307016117855,186.0110286918636 606,208 C 642.7692983882145,229.9889713081364 693.0353830298866,292.59910683613884 733,294 C 772.9646169701134,295.40089316386116 802.6277662686678,235.5925439635812 834,232 C 865.3722337313322,228.4074560364188 898.4535518954422,281.0307173095363 933,279 C 967.5464481045578,276.9692826904637 1003.5580261495638,220.2845867982734 1034,206 C 1064.4419738504362,191.7154132017266 1089.3143435063025,219.83093549736998 1126,225 C 1162.6856564936975,230.16906450263002 1211.184599825226,212.39167121224654 1250,205 C 1288.815400174774,197.60832878775346 1317.9472571927924,200.60237965364385 1348,209 C 1378.0527428072076,217.39762034635615 1409.0263714036037,231.19881017317806 1440,245 L 1440,700 L 0,700 Z"
    fill="url(#surprise-wave-gradient)"
    fill-opacity="0.4"
  />
  <path
    d="M 0,700 L 0,385 C 26.75857056990602,397.4525536847404 53.51714113981204,409.9051073694808 88,412 C 122.48285886018796,414.0948926305192 164.69000601065784,405.8321242068173 203,395 C 241.30999398934216,384.1678757931827 275.7228348175566,370.76639580325 306,367 C 336.2771651824434,363.23360419675 362.4186547191158,369.1022925801828 399,366 C 435.5813452808842,362.8977074198172 482.60254630598,350.8244338760186 521,343 C 559.39745369402,335.1755661239814 589.1711600569643,331.59997191574286 619,346 C 648.8288399430357,360.40002808425714 678.7128134661629,392.77567846101 712,398 C 745.2871865338371,403.22432153899 781.9775860783842,381.2973142402173 815,387 C 848.0224139216158,392.7026857597827 877.3768422202996,426.0350645781209 911,424 C 944.6231577797004,421.9649354218791 982.5150450404169,384.5624274472991 1019,377 C 1055.484954959583,369.4375725527009 1090.5629776180326,391.7152256326827 1125,393 C 1159.4370223819674,394.2847743673173 1193.2330444874528,374.57667002197 1230,360 C 1266.7669555125472,345.42332997803 1306.5048444321565,335.9780942794372 1342,341 C 1377.4951555678435,346.0219057205628 1408.7475777839218,365.5109528602814 1440,385 L 1440,700 L 0,700 Z"
    fill="url(#surprise-wave-gradient)"
    fill-opacity="0.53"
  />
  <path
    d="M 0,700 L 0,525 C 27.21093423282899,534.316238410134 54.42186846565798,543.6324768202679 89,547 C 123.57813153434202,550.3675231797321 165.52346037019706,547.7863311290621 207,553 C 248.47653962980294,558.2136688709379 289.4842900535536,571.2221986634838 320,568 C 350.5157099464464,564.7778013365162 370.53937941558854,545.3248742170032 403,539 C 435.46062058441146,532.6751257829968 480.3581922840922,539.4783044685037 520,532 C 559.6418077159078,524.5216955314963 594.0278514480426,502.7619079089819 632,493 C 669.9721485519574,483.2380920910181 711.5304019237375,485.47406389556863 737,502 C 762.4695980762625,518.5259361044314 771.8505408570073,549.3418365087439 805,568 C 838.1494591429927,586.6581634912561 895.0674346482333,593.1585900694557 936,572 C 976.9325653517667,550.8414099305443 1001.8797205500591,502.02380321343315 1030,478 C 1058.1202794499409,453.97619678656685 1089.4136831515307,454.74619707681177 1120,483 C 1150.5863168484693,511.25380292318823 1180.4655468438186,566.99140847932 1218,567 C 1255.5344531561814,567.00859152068 1300.7241294731948,511.2881690059086 1339,495 C 1377.2758705268052,478.7118309940914 1408.6379352634026,501.85591549704566 1440,525 L 1440,700 L 0,700 Z"
    fill="url(#surprise-wave-gradient)"
    fill-opacity="1"
  />
</svg>
